<svg xmlns="http://www.w3.org/2000/svg" version="1.1" xmlns:xlink="http://www.w3.org/1999/xlink" xmlns:svgjs="http://svgjs.com/svgjs" width="96" height="96"><svg viewBox="0 0 96 96" fill="none" xmlns="http://www.w3.org/2000/svg">
  <title>Chris Woodley</title>
  <path fill="#5374A6" d="M0 0h96v96H0z"></path>
  <path fill="#000" fill-opacity=".5" d="M0 0h96v96H0z"></path>
  <path fill-rule="evenodd" clip-rule="evenodd" d="M84 12H12v72h72V12ZM72 24H24v48h48V24Z" fill="#8592A6"></path>
  <path d="M36.208 63 31.42 35.7h7.392l1.512 11.928c.14 1.428.294 2.856.462 4.284.168 1.428.322 2.856.462 4.284h.168l.756-4.284c.252-1.456.504-2.884.756-4.284L45.532 35.7h6.048l2.604 11.928c.252 1.372.504 2.786.756 4.242.252 1.428.504 2.87.756 4.326h.168c.14-1.456.294-2.898.462-4.326.168-1.456.322-2.87.462-4.242L58.3 35.7h6.888L60.652 63h-9.156l-2.1-10.836a111.114 111.114 0 0 1-.546-3.234 217.691 217.691 0 0 1-.462-3.15h-.168c-.14 1.008-.294 2.058-.462 3.15a41 41 0 0 1-.546 3.234L45.196 63h-8.988Z" fill="#8592A6"></path>
</svg><style>@media (prefers-color-scheme: light) { :root { filter: none; } }
</style></svg>