<svg xmlns="http://www.w3.org/2000/svg" viewBox="0 0 24 24">
  <path d="M9.18 5h1.403v.587h-.817v.587h.817v.587H9.179V5ZM10.864 5h1.403v.51h-.816v.103h.816v1.173h-1.403v-.535h.816v-.103h-.816V5ZM12.548 5h1.404v.51h-.817v.103h.817v1.173h-1.404v-.535h.817v-.103h-.817V5ZM8.828 11.592l-.105-1.16h5.805l-.21 2.346-.028.312-.29 3.247-2.371.657-.005.002-2.374-.66-.163-1.82h1.164l.082.925 1.29.349h.002l1.292-.35.135-1.503H9.035l-.104-1.159h4.221l.106-1.186h-4.43Z"/>
  <path fill-rule="evenodd" clip-rule="evenodd" d="m11.623 20.038-4.715-1.31L5.907 7.502h11.444l-1.002 11.227-4.726 1.31ZM7 8.5l.843 9.45L11.623 19l3.791-1.051.843-9.448H7Z"/>
</svg>