<svg viewBox="0 0 24 24" xmlns="http://www.w3.org/2000/svg">
  <path d="M11.379 19a7.6 7.6 0 0 1-2.388-.376 5.995 5.995 0 0 1-2.045-1.145c-.6-.512-1.074-1.161-1.423-1.946C5.174 14.737 5 13.799 5 12.72c0-1.167.196-2.22.589-3.157A7.357 7.357 0 0 1 7.24 7.126a7.133 7.133 0 0 1 2.42-1.57A7.728 7.728 0 0 1 12.59 5c1.21 0 2.262.256 3.156.769a5.228 5.228 0 0 1 2.061 2.126c.49.894.736 1.924.736 3.091 0 .763-.12 1.428-.36 1.995a4.211 4.211 0 0 1-.916 1.423c-.381.37-.801.654-1.259.85a3.6 3.6 0 0 1-1.358.279c-.48 0-.904-.11-1.275-.327a1.45 1.45 0 0 1-.687-.916h-.033a2.195 2.195 0 0 1-.9.785c-.38.196-.735.294-1.062.294-.665 0-1.205-.229-1.62-.687-.403-.469-.605-1.08-.605-1.832 0-.523.088-1.03.262-1.52.174-.491.414-.927.72-1.309a3.897 3.897 0 0 1 1.079-.916c.403-.229.84-.343 1.308-.343.262 0 .497.065.704.196.207.12.376.327.507.621h.032l.262-.686h1.701l-.785 3.728c-.196.807.033 1.21.687 1.21.327 0 .632-.114.916-.343.283-.229.512-.55.687-.965.174-.425.261-.915.261-1.472 0-.556-.081-1.095-.245-1.619a3.82 3.82 0 0 0-.752-1.406c-.338-.415-.79-.742-1.358-.982-.567-.25-1.264-.376-2.093-.376-.687 0-1.358.142-2.012.425a5.673 5.673 0 0 0-1.766 1.21 5.947 5.947 0 0 0-1.26 1.898c-.305.73-.458 1.548-.458 2.453 0 .807.131 1.505.393 2.094a4.033 4.033 0 0 0 1.063 1.455c.447.382.954.665 1.521.85a5.647 5.647 0 0 0 1.767.279c.392 0 .812-.06 1.259-.18a5.54 5.54 0 0 0 1.161-.409l.589 1.505a6.36 6.36 0 0 1-1.554.572c-.534.12-1.096.18-1.684.18Zm-.066-5.364c.153 0 .3-.05.442-.148.141-.098.3-.267.474-.507l.36-2.06c-.131-.262-.35-.393-.654-.393-.284 0-.53.12-.736.36a2.298 2.298 0 0 0-.475.85 3.1 3.1 0 0 0-.163.949c0 .632.25.949.752.949Z" />
</svg>