<svg viewBox="0 0 24 24" xmlns="http://www.w3.org/2000/svg">
  <path d="M12 5c-3.865 0-7 3.213-7 7.177 0 3.171 2.006 5.862 4.787 6.81.35.067.478-.155.478-.345 0-.17-.006-.736-.01-1.336-1.947.434-2.358-.847-2.358-.847-.318-.83-.777-1.05-.777-1.05-.635-.445.048-.436.048-.436.703.05 1.073.74 1.073.74.625 1.097 1.638.78 2.037.596.063-.464.245-.78.445-.96-1.555-.181-3.19-.796-3.19-3.547 0-.783.274-1.423.722-1.926-.073-.18-.313-.91.067-1.9 0 0 .588-.192 1.926.736A6.554 6.554 0 0 1 12 8.471a6.572 6.572 0 0 1 1.754.241c1.336-.928 1.923-.735 1.923-.735.38.988.141 1.718.068 1.899.45.503.72 1.143.72 1.926 0 2.757-1.637 3.364-3.195 3.542.25.222.474.66.474 1.329 0 .96-.008 1.733-.008 1.97 0 .19.126.414.481.344 2.78-.95 4.783-3.64 4.783-6.81C19 8.213 15.866 5 12 5Z" />
  <path d="M7.672 15.256c-.015.035-.07.046-.12.021-.05-.023-.079-.071-.062-.106.015-.037.07-.047.12-.023.05.024.08.072.062.108ZM7.955 15.577c-.033.031-.098.017-.143-.033-.045-.05-.054-.116-.02-.148.034-.031.097-.017.143.033.046.05.055.116.02.148ZM8.23 15.986c-.042.03-.112.002-.156-.061-.042-.064-.042-.14.001-.17.044-.03.113-.003.157.06.042.064.042.14-.002.171ZM8.608 16.381c-.038.043-.12.032-.18-.027-.06-.057-.078-.139-.04-.181.04-.043.121-.031.182.027.06.057.079.139.038.181ZM9.129 16.611c-.017.056-.096.08-.175.057-.08-.024-.13-.09-.115-.145.017-.057.096-.083.175-.058.08.025.131.09.115.146ZM9.7 16.654c.002.058-.065.107-.148.108-.083.002-.151-.046-.152-.103 0-.06.066-.108.15-.11.082 0 .15.046.15.105ZM10.232 16.561c.01.058-.047.116-.13.132-.08.015-.156-.02-.166-.077-.01-.059.048-.117.13-.133.082-.014.156.02.166.078Z" />
</svg>