<svg xmlns="http://www.w3.org/2000/svg" viewBox="0 0 24 24">
  <path d="M8.45 5h-.589v1.762h.59v-.59h.538v.59h.59V5h-.59v.582H8.45V5Z" />
  <path d="M9.834 5.584h.518v1.178h.59V5.584h.518V5H9.834v.584Z" />
  <path d="M12.332 5h-.614v1.762h.577V5.89l.405.626h.01l.405-.626v.873h.587V5h-.614l-.378.62-.378-.62Z" />
  <path d="M14.584 5h-.589v1.762h1.417V6.18h-.828V5Z" />
  <path
    d="m10.095 12.778-.106-1.186h4.435l.104-1.16H8.723l.312 3.505h4.017l-.135 1.503-1.292.35h-.001l-1.291-.349-.082-.924H9.087l.163 1.82 2.373.659.006-.002L14 16.337l.29-3.247.028-.312h-4.224Z"
   />
  <path fill-rule="evenodd" clip-rule="evenodd"
    d="m17.35 7.501-1.002 11.227-4.725 1.31-4.715-1.31L5.907 7.502h11.444Zm-1.093 1H7l.843 9.45L11.623 19l3.791-1.051.843-9.448Z"
   />
</svg>