<svg xmlns="http://www.w3.org/2000/svg" viewBox="0 0 24 24">
  <path
    d="m14.53 15.962-1.03.682c.085.206.592 1.356 2.508 1.356C17.434 18 18 16.907 18 16.231c0-1.348-.815-1.776-1.37-2.038-.107-.05-.233-.1-.366-.15-.508-.197-1.11-.43-1.11-.948 0-.185.115-.591.67-.591.223 0 .588.147.807.59l1-.697c-.543-1.02-1.632-1.047-1.858-1.047-.346 0-1.877.182-1.877 1.769 0 1.44 1.3 1.936 1.653 2.071l.066.026c.03.013.072.027.124.045.317.108.976.333.976.97 0 .234-.3.587-.946.587-.646 0-1.158-.603-1.238-.856Z"
   />
  <path
    d="m9.574 16.098-1.074.681c.096.373.69 1.221 2.117 1.221 1.552 0 1.903-1.268 1.882-1.902V11.5h-1.321v4.598c0 .233-.243.72-.718.72-.474 0-.801-.467-.886-.72Z"
   />
  <path fill-rule="evenodd" clip-rule="evenodd" d="M4 4v16h16V4H4Zm1 1h14v14H5V5Z" />
</svg>