<svg viewBox="0 0 24 24" xmlns="http://www.w3.org/2000/svg">
  <path d="M14.739 13.489c.858-.15 1.654-.216 2.339-.216 1.275 0 2.184.257 2.626.7.199.215.33.64.13 1.022-.105.293-.442.657-1.369.657-.746 0-2.252-.239-3.95-1.697-.716.113-1.42.263-2.122.442-.66.173-1.325.383-1.985.598C9.549 16.495 7.845 19 6.233 19c-.529 0-.84-.251-.927-.317-.243-.233-.355-.532-.286-.849.174-.849 1.742-1.93 4.175-2.863.441-.765.84-1.59 1.188-2.397.392-.885.747-1.781 1.064-2.696-.84-1.781-1.064-3.58-.579-4.412.18-.275.51-.466.84-.466 1.083 0 1.463 1.016 1.463 1.997 0 .866-.243 2.074-.753 3.562.261.443.554.909.883 1.333.43.574.909 1.106 1.438 1.597ZM11.62 9.265c.38-1.19.598-2.23.598-2.905 0-.407-.087-.915-.554-.915a.481.481 0 0 0-.417.251c-.31.532-.267 1.913.373 3.569Zm-6.16 8.65c-.043.174.025.324.156.45a.585.585 0 0 0 .33.107c.666 0 1.748-1.106 2.874-2.887-1.947.806-3.229 1.697-3.36 2.33Zm13.36-3.328c.112-.55-.374-.74-.685-.807-.267-.06-.66-.083-1.126-.083-.622 0-1.244.047-1.854.15.796.633 1.586 1.04 2.426 1.23.137.019.243.042.38.042.46 0 .79-.215.859-.532Zm-5.916-2.417a13.553 13.553 0 0 1-.71-1.04c-.217.574-.441 1.19-.703 1.781-.236.52-.485 1.028-.752 1.53a23.363 23.363 0 0 1 1.567-.448 23.22 23.22 0 0 1 1.836-.4c-.43-.467-.84-.939-1.238-1.423Z" />
</svg>