<svg xmlns="http://www.w3.org/2000/svg" viewBox="0 0 24 24">
  <path d="M16.938 9.538c-.164-.057-.333-.11-.507-.16.029-.117.055-.232.078-.345.384-1.862.133-3.361-.723-3.855-.82-.473-2.163.02-3.52 1.2-.13.114-.26.234-.391.36a9.622 9.622 0 0 0-.26-.241c-1.422-1.262-2.846-1.793-3.701-1.298-.82.474-1.063 1.884-.718 3.648.033.17.072.344.116.521-.201.058-.396.119-.582.183C5.064 10.132 4 11.043 4 11.987c0 .975 1.142 1.953 2.877 2.546.137.047.28.091.426.133a10.29 10.29 0 0 0-.124.562c-.329 1.733-.072 3.11.746 3.581.845.488 2.263-.013 3.643-1.22a8.91 8.91 0 0 0 .329-.303c.142.137.284.267.425.388 1.337 1.151 2.658 1.616 3.475 1.143.844-.489 1.119-1.967.762-3.766a8.855 8.855 0 0 0-.094-.42c.1-.03.198-.06.293-.092 1.804-.598 2.977-1.564 2.977-2.552 0-.948-1.098-1.864-2.797-2.45Zm-.392 4.363a8.962 8.962 0 0 1-.264.082c-.2-.63-.468-1.3-.797-1.993.314-.676.573-1.338.766-1.964.161.046.317.095.468.147 1.456.502 2.344 1.243 2.344 1.814 0 .608-.96 1.398-2.517 1.914Zm-.646 1.28c.158.796.18 1.515.076 2.077-.094.505-.282.842-.516.977-.495.287-1.556-.086-2.7-1.07a9.636 9.636 0 0 1-.395-.361c.443-.485.886-1.049 1.319-1.675.76-.067 1.48-.178 2.13-.328.033.13.062.256.086.38Zm-6.535 3.004c-.485.172-.87.176-1.104.042-.496-.286-.703-1.391-.421-2.874.032-.17.07-.344.115-.522.644.142 1.358.245 2.12.307a16.38 16.38 0 0 0 1.35 1.669c-.1.097-.2.189-.299.276-.61.533-1.222.912-1.761 1.102Zm-2.27-4.288c-.768-.262-1.401-.603-1.835-.975-.39-.334-.588-.666-.588-.935 0-.573.854-1.304 2.28-1.8.172-.061.353-.118.54-.171.198.64.456 1.31.768 1.987a16.376 16.376 0 0 0-.777 2.016 8.337 8.337 0 0 1-.388-.122Zm.76-5.179c-.295-1.511-.099-2.651.395-2.937.527-.305 1.691.13 2.918 1.219.078.07.157.142.236.218a16.11 16.11 0 0 0-1.34 1.658 16.43 16.43 0 0 0-2.1.327 9.855 9.855 0 0 1-.108-.485Zm6.788 1.676a21.265 21.265 0 0 0-.478-.787c.502.064.983.148 1.434.25-.135.436-.304.89-.503 1.356a23.3 23.3 0 0 0-.453-.819Zm-2.768-2.696c.31.336.62.71.926 1.118a19.794 19.794 0 0 0-1.86 0c.306-.404.62-.778.934-1.118Zm-2.785 2.7c-.156.27-.304.542-.445.814-.195-.464-.363-.92-.5-1.361.45-.1.928-.183 1.427-.245-.165.258-.327.522-.482.793Zm.496 4.018a14.306 14.306 0 0 1-1.45-.234c.139-.448.31-.915.51-1.389a19.952 19.952 0 0 0 .94 1.622Zm2.308 1.907a15.11 15.11 0 0 1-.947-1.133 23.54 23.54 0 0 0 1.87-.003c-.306.416-.615.797-.923 1.136Zm3.208-3.554c.21.48.388.943.529 1.384-.457.104-.95.188-1.468.25a23.393 23.393 0 0 0 .94-1.634Zm-1.039.498c-.245.427-.498.834-.754 1.218a22.088 22.088 0 0 1-2.866.006 18.89 18.89 0 0 1-1.44-2.488 18.93 18.93 0 0 1 1.432-2.483 18.913 18.913 0 0 1 2.868 0 22.021 22.021 0 0 1 1.436 2.473c-.204.422-.43.848-.676 1.274Zm1.387-7.506c.527.303.732 1.529.401 3.136a8.895 8.895 0 0 1-.07.313 16.106 16.106 0 0 0-2.105-.333 15.786 15.786 0 0 0-1.33-1.66c.121-.116.242-.227.362-.332 1.162-1.01 2.248-1.41 2.742-1.124Zm-3.582 4.82a1.405 1.405 0 1 1 0 2.81 1.405 1.405 0 0 1 0-2.81Z" />
</svg>